Coordinates
version=1
nRows=4
nColumns=107
inDegrees=yes

Units are S.I. units (second, meters, Newtons, ...)
If the header above contains a line with 'inDegrees', this indicates whether rotational values are in degrees (yes) or radians (no).

endheader
time	sternoclavicular_r2	sternoclavicular_r3	unrotscap_r3	unrotscap_r2	acromioclavicular_r2	acromioclavicular_r3	acromioclavicular_r1	unrothum_r1	unrothum_r3	unrothum_r2	elv_angle	shoulder_elv	shoulder1_r2	shoulder_rot	elbow_flexion	pro_sup	deviation	flexion	proximal_distal_r1	proximal_distal_r3	cmc_flexion	cmc_abduction	mp_flexion	ip_flexion	mcp2_flexion	mcp2_abduction	pm2_flexion	md2_flexion	mcp3_flexion	mcp3_abduction	pm3_flexion	md3_flexion	mcp4_flexion	mcp4_abduction	pm4_flexion	md4_flexion	mcp5_flexion	mcp5_abduction	pm5_flexion	md5_flexion	bicpt_tx	bicpt_ty	bicpt_tz	bicpt2_tx	bicpt2_ty	bicpt2_tz	ptpt_tx	ptpt_ty	ptpt_tz	FCUpt_tx	FCUpt_ty	FCUpt_tz	EDCpt_tx	EDCpt_ty	EDCpt_tz	APLpt_tx	APLpt_ty	APLpt_tz	FPLpt_tx	FPLpt_ty	FPLpt_tz	FPLpt2_tx	FPLpt2_ty	FPLpt2_tz	PEC1pt2_tx	PEC1pt2_ty	PEC1pt2_tz	PEC1pt3_tx	PEC1pt3_ty	PEC1pt3_tz	PEC2pt2_tx	PEC2pt2_ty	PEC2pt2_tz	PEC2pt3_tx	PEC2pt3_ty	PEC2pt3_tz	PEC3pt2_tx	PEC3pt2_ty	PEC3pt2_tz	PEC3pt3_tx	PEC3pt3_ty	PEC3pt3_tz	DELT2pt2a_tx	DELT2pt2a_ty	DELT2pt2a_tz	DELT2pt2_tx	DELT2pt2_ty	DELT2pt2_tz	LAT1pt2_tx	LAT1pt2_ty	LAT1pt2_tz	LAT1pt3_tx	LAT1pt3_ty	LAT1pt3_tz	LAT2pt2_tx	LAT2pt2_ty	LAT2pt2_tz	LAT2pt3_tx	LAT2pt3_ty	LAT2pt3_tz	LAT3pt2_tx	LAT3pt2_ty	LAT3pt2_tz	LAT3pt3_tx	LAT3pt3_ty	LAT3pt3_tz
      0.50000000	     -0.31460525	      0.13325193	     -0.13325193	      0.31460525	     -0.06370116	      0.51481040	      0.23140373	     -0.23140373	     -0.51481040	      0.06370116	    100.61989051	     74.48558921	     -1.75614838	    -35.32073416	     31.88619938	     85.45092229	      0.32022223	     -0.61405870	      0.35065516	     -0.30702935	     42.86337501	    -21.16318802	     13.85602906	      4.78916039	     82.48154235	     12.38713715	     78.22546349	     85.19690069	     90.84639756	     -1.67930761	     80.05577798	     55.89029998	     91.24749148	    -13.83069362	     89.45419905	     40.80400819	    101.63603599	    -14.31051544	     85.61040664	      5.47814070	      0.00095470	     -0.03125465	     -0.00488867	      0.01429633	     -0.01886204	     -0.00116986	      0.00123614	     -0.06898265	     -0.00693353	      0.01267497	     -0.18225629	      0.00006878	     -0.01025409	      0.00354793	     -0.00073967	      0.00031249	      0.00012500	      0.00062499	      0.00039999	      0.00119998	      0.00067499	     -0.00000559	     -0.00005088	     -0.00006106	      0.00244147	      0.00856585	      0.00595885	     -0.00798652	      0.01928351	     -0.01829037	      0.00244147	      0.00856585	      0.00595885	      0.00053795	      0.01787656	     -0.00939347	      0.00388377	      0.00476336	      0.01580865	      0.00000000	      0.00741759	      0.00000000	     -0.00699338	     -0.03231850	     -0.00611404	      0.02104739	     -0.00094247	     -0.01025254	     -0.00086900	      0.01456608	     -0.00595885	      0.00240009	      0.02102151	     -0.01737999	     -0.00583471	      0.01262118	     -0.00533814	     -0.01216599	      0.02664931	     -0.02983564	     -0.02284227	      0.01411089	     -0.00715890	     -0.01514542	      0.03078740	     -0.03728421
      0.53333333	     -0.31533736	      0.13356202	     -0.13356202	      0.31533736	     -0.06384940	      0.51600840	      0.23194223	     -0.23194223	     -0.51600840	      0.06384940	    100.11055180	     74.65892344	     -1.74725874	    -33.67980132	     32.34793190	     85.37346407	      0.35694966	     -0.51058834	      0.38014249	     -0.25529417	     42.85515495	    -21.23209121	     13.98647531	      4.50854605	     81.64558613	     12.41148954	     78.82700052	     85.85193555	     90.03539288	     -1.51144637	     80.44673878	     55.70703711	     90.52290615	    -13.79742764	     89.89125569	     41.35905248	    100.73601874	    -14.30688342	     85.85394106	      5.47083311	      0.00096997	     -0.03130757	     -0.00489719	      0.01430422	     -0.01898747	     -0.00118306	      0.00124186	     -0.06897894	     -0.00692729	      0.01266609	     -0.18225890	      0.00006669	     -0.01024479	      0.00354369	     -0.00073721	      0.00030408	      0.00012163	      0.00060816	      0.00038922	      0.00116767	      0.00065681	     -0.00000561	     -0.00005107	     -0.00006128	      0.00244716	      0.00858578	      0.00597272	     -0.00800510	      0.01932838	     -0.01833293	      0.00244716	      0.00858578	      0.00597272	      0.00053920	      0.01791816	     -0.00941533	      0.00389044	      0.00477445	      0.01582535	      0.00000000	      0.00745238	      0.00000000	     -0.00700965	     -0.03239370	     -0.00614293	      0.02041871	     -0.00088454	     -0.00936989	     -0.00087102	      0.01459998	     -0.00597272	      0.00240568	      0.02107043	     -0.01742043	     -0.00584829	      0.01265055	     -0.00535056	     -0.01219430	      0.02671133	     -0.02990507	     -0.02289542	      0.01414373	     -0.00717556	     -0.01518066	      0.03085905	     -0.03737097
      0.56666667	     -0.31517682	      0.13349403	     -0.13349403	      0.31517682	     -0.06381689	      0.51574570	      0.23182414	     -0.23182414	     -0.51574570	      0.06381689	    100.17971719	     74.62091360	     -1.74846591	    -33.92864163	     32.31079641	     85.46502521	      0.35373577	     -0.52156032	      0.37765070	     -0.26078016	     42.86385772	    -21.17167667	     13.96890039	      4.47517662	     81.64960059	     12.39508188	     78.76640396	     85.77783199	     90.04933649	     -1.54429746	     80.49783808	     55.64466218	     90.48973359	    -13.79894833	     89.94827427	     41.48470295	    100.80491011	    -14.30749001	     85.87698600	      5.46633811	      0.00096874	     -0.03130331	     -0.00489651	      0.01429488	     -0.01897739	     -0.00116745	      0.00123510	     -0.06898332	     -0.00693467	      0.01267659	     -0.18225581	      0.00006917	     -0.01025578	      0.00354870	     -0.00074012	      0.00030582	      0.00012233	      0.00061165	      0.00039145	      0.00117436	      0.00066058	     -0.00000559	     -0.00005087	     -0.00006104	      0.00244591	      0.00858141	      0.00596968	     -0.00800103	      0.01931854	     -0.01832360	      0.00244591	      0.00858141	      0.00596968	      0.00053893	      0.01790903	     -0.00941053	      0.00388898	      0.00477201	      0.01582170	      0.00000000	      0.00744475	      0.00000000	     -0.00700608	     -0.03237721	     -0.00613659	      0.02051639	     -0.00089328	     -0.00950188	     -0.00087058	      0.01459255	     -0.00596968	      0.00240445	      0.02105970	     -0.01741156	     -0.00584531	      0.01264411	     -0.00534784	     -0.01218809	      0.02669773	     -0.02988985	     -0.02288377	      0.01413653	     -0.00717190	     -0.01517293	      0.03084334	     -0.03735194
      0.60000000	     -0.31535526	      0.13356960	     -0.13356960	      0.31535526	     -0.06385302	      0.51603768	      0.23195539	     -0.23195539	     -0.51603768	      0.06385302	    100.06162268	     74.66316010	     -1.74640477	    -33.57703561	     32.42181873	     85.40141485	      0.35830341	     -0.50632326	      0.38118775	     -0.25316163	     42.84098375	    -21.15233634	     13.79678180	      4.87967436	     81.35613420	     12.38373915	     79.10255789	     84.84947638	     89.87695236	     -1.55167848	     80.61448441	     55.51082360	     90.35746280	    -13.79540444	     89.98796404	     41.70277548	    100.60794240	    -14.30839009	     86.01794173	      5.46166226	      0.00097241	     -0.03131604	     -0.00489856	      0.01430137	     -0.01900755	     -0.00117830	      0.00123980	     -0.06898028	     -0.00692954	      0.01266929	     -0.18225795	      0.00006744	     -0.01024815	      0.00354522	     -0.00073809	      0.00030335	      0.00012134	      0.00060670	      0.00038829	      0.00116486	      0.00065523	     -0.00000564	     -0.00005139	     -0.00006166	      0.00244729	      0.00858627	      0.00597306	     -0.00800556	      0.01932948	     -0.01833397	      0.00244729	      0.00858627	      0.00597306	      0.00053923	      0.01791917	     -0.00941586	      0.00389060	      0.00477472	      0.01582576	      0.00000000	      0.00745323	      0.00000000	     -0.00701005	     -0.03239554	     -0.00614364	      0.02037814	     -0.00088093	     -0.00931556	     -0.00087107	      0.01460081	     -0.00597306	      0.00240581	      0.02107162	     -0.01742142	     -0.00584862	      0.01265127	     -0.00535086	     -0.01219499	      0.02671284	     -0.02990677	     -0.02289672	      0.01414453	     -0.00717597	     -0.01518152	      0.03086080	     -0.03737309
